<svg width="32" height="30" viewBox="0 0 35 33" fill="none" xmlns="http://www.w3.org/2000/svg">
<path d="M31.7188 0H3.28125C1.46973 0 0 1.58371 0 3.53571V29.4643C0 31.4163 1.46973 33 3.28125 33H31.7188C33.5303 33 35 31.4163 35 29.4643V3.53571C35 1.58371 33.5303 0 31.7188 0ZM26.0039 21.3984C26.332 21.752 26.332 22.3266 26.0039 22.6801L23.2354 25.6634C22.9072 26.017 22.374 26.017 22.0459 25.6634L17.5 20.7208L12.9541 25.6634C12.626 26.017 12.0928 26.017 11.7646 25.6634L8.99609 22.6801C8.66797 22.3266 8.66797 21.752 8.99609 21.3984L13.583 16.5L8.99609 11.6016C8.66797 11.248 8.66797 10.6734 8.99609 10.3199L11.7646 7.33661C12.0928 6.98304 12.626 6.98304 12.9541 7.33661L17.5 12.2792L22.0459 7.33661C22.374 6.98304 22.9072 6.98304 23.2354 7.33661L26.0039 10.3199C26.332 10.6734 26.332 11.248 26.0039 11.6016L21.417 16.5L26.0039 21.3984Z" fill="black"/>
</svg>
