<svg width="700" height="600" viewBox="0 0 524 467" fill="none" xmlns="http://www.w3.org/2000/svg">
<path d="M76.0403 299.072C76.0403 319.456 92.563 335.94 112.905 335.94H415.982C436.364 335.94 452.847 319.416 452.847 299.072V54.1876C452.847 33.804 436.324 17.3202 415.982 17.3202H112.945C92.563 17.3202 76.0805 33.8442 76.0805 54.1876V299.072H76.0403Z" fill="#DBFAFF"/>
<path d="M130.575 196.64H186.01C185.977 195.64 185.943 194.672 185.943 193.672C185.943 136.231 232.506 89.664 289.943 89.664C347.38 89.664 393.943 136.231 393.943 193.672C393.943 194.739 393.909 195.806 393.876 196.874C426.897 199.643 452.847 227.329 452.847 261.086V365.661H66.1337V261.12C66.1337 225.494 94.9855 196.64 130.575 196.64Z" fill="#54C7E8"/>
<path d="M138.813 279.399C129.841 279.399 121.903 274.829 117.266 267.891C113.23 270.593 108.361 272.194 103.124 272.194C90.7828 272.194 80.4762 263.421 78.1414 251.746C77.8412 251.746 77.541 251.78 77.2075 251.78C62.8984 251.78 51.291 240.171 51.291 225.861C51.291 216.254 56.5276 207.915 64.2659 203.445C60.6636 198.242 58.5289 191.904 58.5289 185.065C58.5289 167.219 72.9715 152.776 90.8162 152.776C95.4524 152.776 99.8552 153.776 103.858 155.544C103.691 154.644 103.591 153.743 103.591 152.776C103.591 145.037 109.862 138.766 117.6 138.766C121.736 138.766 125.438 140.567 128.007 143.436C131.642 134.93 140.081 128.992 149.887 128.992C162.662 128.992 173.035 139.066 173.636 151.708C186.51 157.012 195.616 169.554 195.95 184.265C203.321 188.768 208.291 196.874 208.291 206.18C208.291 213.786 204.956 220.591 199.719 225.294C202.454 229.497 204.088 234.534 204.088 239.938C204.088 254.715 192.114 266.724 177.305 266.724C172.068 266.724 167.232 265.189 163.096 262.621C159.393 272.394 149.954 279.399 138.813 279.399Z" fill="#157D4F"/>
<path d="M89.5487 229.664L93.1843 230.598L95.9527 235.635C103.491 252.347 116.566 259.285 116.566 259.285C117.933 259.285 116.833 256.783 116.833 256.783C113.564 250.746 113.564 242.94 113.564 242.94L115.565 243.574C116.699 252.747 120.969 257.784 120.969 257.784C123.871 244.708 123.604 240.805 123.604 240.805L123.37 229.997L126.772 231.499L132.042 231.365L130.775 246.709C137.446 235.902 147.886 225.461 147.886 225.461C151.288 225.461 149.52 227.729 149.52 227.729C133.176 251.113 130.675 264.088 130.675 264.088L131.042 275.864C136.579 273.162 152.822 263.788 159.293 244.007H161.428C161.428 244.007 160.394 255.049 149.987 267.391C149.987 267.391 141.415 278.899 131.275 282.835L132.176 343.445C135.811 344.946 135.311 348.115 135.311 348.115L140.648 348.982V351.251H126.405H108.127V348.882L114.865 347.081C114.865 343.512 118.801 343.112 118.801 343.112L121.636 268.358C111.83 262.12 103.157 253.848 103.157 253.848C95.4191 246.276 89.5487 229.664 89.5487 229.664Z" fill="#6A4B00"/>
<path d="M166.097 244.675C166.097 246.076 164.963 247.243 163.529 247.243H153.956C152.555 247.243 151.388 246.109 151.388 244.675C151.388 243.274 152.522 242.106 153.956 242.106H163.563C164.963 242.106 166.097 243.24 166.097 244.675Z" fill="#126942"/>
<path d="M490.438 395.649H26.5085V397.884L490.438 399.852V395.649Z" fill="#3C3B3D"/>
<path d="M26.5085 397.884V431.842H490.438V399.852L26.5085 397.884Z" fill="#4B4A4D"/>
<path d="M125.972 164.951C125.972 161.248 128.974 158.246 132.676 158.246C133.944 158.246 135.111 158.613 136.112 159.214C137.913 152.776 143.817 148.039 150.821 148.039C159.26 148.039 166.131 154.877 166.131 163.35C166.131 171.789 159.293 178.661 150.821 178.661C148.82 178.661 146.885 178.261 145.151 177.56C143.85 179.395 141.749 180.562 139.347 180.562C135.411 180.562 132.243 177.393 132.243 173.457C132.243 172.823 132.343 172.223 132.509 171.622C128.874 171.556 125.972 168.587 125.972 164.951Z" fill="#126942"/>
<path d="M156.625 208.749C156.658 208.749 156.658 208.749 156.625 208.749C156.958 199.376 164.63 191.87 174.069 191.87C183.709 191.87 191.514 199.676 191.514 209.316C191.514 218.956 183.709 226.762 174.069 226.762C169.466 226.762 165.297 224.961 162.195 222.058C160.761 223.493 158.793 224.393 156.625 224.393C152.289 224.393 148.786 220.891 148.786 216.555C148.786 212.218 152.322 208.749 156.625 208.749Z" fill="#126942"/>
<path d="M89.5153 204.379C89.1818 202.978 88.9817 201.51 88.9817 199.976C88.9817 189.602 97.387 181.163 107.794 181.163C115.365 181.163 121.836 185.632 124.838 192.07C125.071 192.07 125.271 192.004 125.505 192.004C132.91 192.004 138.88 198.008 138.88 205.38C138.88 212.752 132.876 218.756 125.505 218.756C122.503 218.756 119.735 217.722 117.5 216.054C114.665 217.755 111.363 218.756 107.794 218.756C104.758 218.756 101.89 218.022 99.3549 216.755C97.9874 220.124 94.7186 222.492 90.8829 222.492C85.8463 222.492 81.7437 218.389 81.7437 213.352C81.7771 208.816 85.1459 205.046 89.5153 204.379Z" fill="#126942"/>
<path d="M319.829 169.488C315.393 173.524 311.657 178.494 308.989 184.298C300.416 202.878 305.353 224.227 319.662 237.369C314.892 252.58 321.997 269.326 336.873 276.197C348.447 281.534 361.522 279.366 370.728 271.794C374.797 277.131 380.201 281.601 386.738 284.637C404.249 292.709 424.429 287.839 436.503 273.996C450.512 280.133 466.923 273.962 473.327 259.986C476.929 252.18 476.629 243.607 473.293 236.369C484.367 234.834 494.44 227.896 499.477 216.988C507.315 199.976 499.877 179.862 482.866 172.023C479.997 170.689 476.996 169.855 474.027 169.354C477.796 154.844 470.792 139.266 456.683 132.761C446.643 128.125 435.436 129.226 426.73 134.696C423.828 127.157 418.125 120.686 410.186 117.05C394.943 110.012 377.032 115.949 368.86 130.26C368.827 130.226 368.76 130.226 368.727 130.193C351.149 122.087 330.335 129.793 322.23 147.372C318.861 154.544 318.228 162.283 319.829 169.488Z" fill="#00A485"/>
<path d="M432.534 249.178C432.534 249.178 425.863 268.125 417.024 276.764C417.024 276.764 407.118 286.238 395.911 293.343L399.146 341.811C399.146 341.811 403.616 342.244 403.616 346.347L411.32 348.382V351.084H390.44H374.163V348.482L380.267 347.481C380.267 347.481 379.7 343.879 383.87 342.144L385.604 288.473C385.604 288.473 382.736 273.662 364.057 246.943C364.057 246.943 362.056 244.341 365.925 244.341C365.925 244.341 377.832 256.25 385.471 268.625L384.036 251.113L390.074 251.246L393.943 249.511L393.642 261.854C393.642 261.854 393.342 266.29 396.644 281.234C396.644 281.234 401.514 275.497 402.815 265.022L405.116 264.322C405.116 264.322 405.116 273.228 401.381 280.133C401.381 280.133 400.08 283.002 401.681 283.002C401.681 283.002 416.624 275.096 425.229 256.016L428.398 250.279L432.534 249.178Z" fill="#6A4B00"/>
<path d="M391.208 186.667C391.208 175.559 400.213 166.552 411.32 166.552C413.088 166.552 414.789 166.819 416.424 167.219C417.925 156.445 427.131 148.139 438.304 148.139C450.512 148.139 460.418 158.046 460.418 170.255C460.418 173.224 459.818 176.026 458.784 178.594C458.951 178.594 459.118 178.561 459.284 178.561C470.858 178.561 480.264 187.934 480.264 199.509C480.264 211.084 470.892 220.457 459.284 220.457C452.947 220.457 447.277 217.622 443.441 213.185C438.938 217.822 432.667 220.758 425.696 220.758C415.089 220.758 406.05 214.053 402.548 204.646C395.844 201.477 391.208 194.606 391.208 186.667Z" fill="#009478"/>
<path d="M328.001 197.508C327.434 196.207 327.067 194.739 327.067 193.205C327.067 187.334 331.803 182.597 337.674 182.597C342.477 182.597 346.512 185.833 347.813 190.236C350.282 188.868 353.05 188.034 356.085 188.034C365.591 188.034 373.33 195.74 373.33 205.28C373.33 214.787 365.625 222.525 356.085 222.525C351.849 222.525 348.047 220.958 345.045 218.423C342.51 221.425 338.774 223.393 334.538 223.393C326.933 223.393 320.763 217.222 320.763 209.616C320.729 204.346 323.698 199.843 328.001 197.508Z" fill="#009478"/>
<path d="M199.752 149.44L164.296 190.97V186.633L198.918 145.337L233.54 186.633H241.712V190.269H235.275L199.752 149.44Z" fill="#005B8A"/>
<path d="M199.752 149.44L235.275 190.269H241.712V329.835H233.54H164.296V190.97L199.752 149.44Z" fill="#006A9E"/>
<path d="M241.712 186.533H254.787H276.034H284.44H340.609H353.484V190.136H241.712V186.533Z" fill="#0070A8"/>
<path d="M353.484 190.136V329.735H284.44H276.034H241.712V190.136H353.484Z" fill="#0082C1"/>
<path d="M318.628 264.889H276.601V309.688H318.628V264.889Z" fill="#414042"/>
<path d="M315.459 268.058H279.737V306.519H315.459V268.058Z" fill="white"/>
<path d="M313.425 292.175L281.805 297.879V293.076L313.425 287.372V292.175Z" fill="#A0DDFF"/>
<path d="M313.425 298.113H281.805V297.879L313.425 292.175V298.113Z" fill="#87D4FF"/>
<path d="M281.805 278.332L313.425 272.595V277.398L281.805 283.102V278.332Z" fill="#A0DDFF"/>
<path d="M313.425 277.398V287.372L281.805 293.076V283.102L313.425 277.398Z" fill="#87D4FF"/>
<path d="M281.805 270.093H313.425V272.595L281.805 278.332V270.093Z" fill="#87D4FF"/>
<path d="M164.296 186.633H156.091L194.816 140.434L198.918 145.337L164.296 186.633Z" fill="#D65950"/>
<path d="M203.021 140.434H301.884H314.759H323.164L361.889 186.633H353.484H340.609H284.44H276.034H254.787H241.712H233.54L198.918 145.337L194.816 140.434H203.021Z" fill="#FF6960"/>
<path d="M339.108 203.045H256.088V252.347H339.108V203.045Z" fill="#414042"/>
<path d="M315.459 283.102H279.737V285.137H315.459V283.102Z" fill="white"/>
<path d="M298.615 268.959H296.581V301.982H298.615V268.959Z" fill="white"/>
<path opacity="0.1" d="M313.391 270.093H311.957V283.069H313.391V270.093Z" fill="#414042"/>
<path opacity="0.1" d="M313.391 285.137H311.957V298.113H313.391V285.137Z" fill="#414042"/>
<path opacity="0.1" d="M296.581 270.093H295.447V283.069H296.581V270.093Z" fill="#414042"/>
<path opacity="0.1" d="M296.581 285.137H295.447V298.113H296.581V285.137Z" fill="#414042"/>
<path d="M220.699 264.889H185.31V309.688H220.699V264.889Z" fill="#414042"/>
<path d="M218.031 268.058H187.978V306.519H218.031V268.058Z" fill="white"/>
<path d="M189.713 292.175L216.329 297.879V293.076L189.713 287.372V292.175Z" fill="#A0DDFF"/>
<path d="M189.713 298.113H216.329V297.879L189.713 292.175V298.113Z" fill="#87D4FF"/>
<path d="M216.329 278.332L189.713 272.595V277.398L216.329 283.102V278.332Z" fill="#A0DDFF"/>
<path d="M189.713 277.398V287.372L216.329 293.076V283.102L189.713 277.398Z" fill="#87D4FF"/>
<path d="M216.329 270.093H189.713V272.595L216.329 278.332V270.093Z" fill="#87D4FF"/>
<path d="M218.031 283.102H187.978V285.137H218.031V283.102Z" fill="white"/>
<path d="M203.888 268.959H202.154V301.982H203.888V268.959Z" fill="white"/>
<path opacity="0.1" d="M190.913 270.093H189.713V283.069H190.913V270.093Z" fill="#414042"/>
<path opacity="0.1" d="M190.913 285.137H189.713V298.113H190.913V285.137Z" fill="#414042"/>
<path opacity="0.1" d="M204.822 270.093H203.855V283.069H204.822V270.093Z" fill="#414042"/>
<path opacity="0.1" d="M204.822 285.137H203.855V298.113H204.822V285.137Z" fill="#414042"/>
<path d="M220.699 203.045H185.31V247.844H220.699V203.045Z" fill="#414042"/>
<path d="M218.031 206.181H187.978V244.641H218.031V206.181Z" fill="white"/>
<path d="M189.713 230.298L216.329 236.002V231.232L189.713 225.494V230.298Z" fill="#A0DDFF"/>
<path d="M189.713 236.235H216.329V236.002L189.713 230.298V236.235Z" fill="#87D4FF"/>
<path d="M216.329 216.455L189.713 210.75V215.52L216.329 221.225V216.455Z" fill="#A0DDFF"/>
<path d="M189.713 215.521V225.494L216.329 231.232V221.225L189.713 215.521Z" fill="#87D4FF"/>
<path d="M216.329 208.249H189.713V210.75L216.329 216.455V208.249Z" fill="#87D4FF"/>
<path d="M218.031 221.225H187.978V223.259H218.031V221.225Z" fill="white"/>
<path d="M203.888 207.081H202.154V240.105H203.888V207.081Z" fill="white"/>
<path opacity="0.1" d="M190.913 208.249H189.713V221.225H190.913V208.249Z" fill="#414042"/>
<path opacity="0.1" d="M190.913 223.259H189.713V236.235H190.913V223.259Z" fill="#414042"/>
<path opacity="0.1" d="M204.822 208.249H203.855V221.225H204.822V208.249Z" fill="#414042"/>
<path opacity="0.1" d="M204.822 223.259H203.855V236.235H204.822V223.259Z" fill="#414042"/>
<path d="M335.505 206.881H296.547V248.878H335.505V206.881Z" fill="white"/>
<path d="M333.271 233.166L298.749 239.404V234.201L333.271 227.963V233.166Z" fill="#A0DDFF"/>
<path d="M333.271 239.671H298.749V239.404L333.271 233.166V239.671Z" fill="#87D4FF"/>
<path d="M298.749 218.056L333.271 211.818V217.055L298.749 223.293V218.056Z" fill="#A0DDFF"/>
<path d="M333.271 217.055V227.963L298.749 234.2V223.293L333.271 217.055Z" fill="#87D4FF"/>
<path d="M298.749 209.083H333.271V211.818L298.749 218.056V209.083Z" fill="#87D4FF"/>
<path d="M335.505 223.259H296.547V225.494H335.505V223.259Z" fill="white"/>
<path d="M317.127 207.848H314.892V243.874H317.127V207.848Z" fill="white"/>
<path opacity="0.1" d="M333.271 209.083H331.703V223.259H333.271V209.083Z" fill="#414042"/>
<path opacity="0.1" d="M333.271 225.494H331.703V239.671H333.271V225.494Z" fill="#414042"/>
<path opacity="0.1" d="M314.892 209.083H313.658V223.259H314.892V209.083Z" fill="#414042"/>
<path opacity="0.1" d="M314.892 225.494H313.658V239.671H314.892V225.494Z" fill="#414042"/>
<path d="M298.749 206.881H259.79V248.878H298.749V206.881Z" fill="white"/>
<path d="M296.547 233.166L262.025 239.404V234.201L296.547 227.963V233.166Z" fill="#A0DDFF"/>
<path d="M296.547 239.671H262.025V239.404L296.547 233.166V239.671Z" fill="#87D4FF"/>
<path d="M262.025 218.056L296.547 211.818V217.055L262.025 223.293V218.056Z" fill="#A0DDFF"/>
<path d="M296.547 217.055V227.963L262.025 234.2V223.293L296.547 217.055Z" fill="#87D4FF"/>
<path d="M262.025 209.083H296.547V211.818L262.025 218.056V209.083Z" fill="#87D4FF"/>
<path d="M298.749 223.259H259.79V225.494H298.749V223.259Z" fill="white"/>
<path d="M280.404 207.848H278.169V243.874H280.404V207.848Z" fill="white"/>
<path opacity="0.1" d="M296.514 209.083H294.946V223.259H296.514V209.083Z" fill="#414042"/>
<path opacity="0.1" d="M296.514 225.494H294.946V239.671H296.514V225.494Z" fill="#414042"/>
<path opacity="0.1" d="M278.169 209.083H276.935V223.259H278.169V209.083Z" fill="#414042"/>
<path opacity="0.1" d="M278.169 225.494H276.935V239.671H278.169V225.494Z" fill="#414042"/>
<path d="M357.486 329.835H237.977V349.816H357.486V329.835Z" fill="#4B4A4D"/>
<path d="M238.01 329.835H161.194V349.816H238.01V329.835Z" fill="#3C3B3D"/>
<path d="M279.47 130.16H256.588V135.263H279.47V130.16Z" fill="#FF6960"/>
<path d="M279.47 119.986H256.588V125.089H279.47V119.986Z" fill="#FF6960"/>
<path d="M278.269 125.089H257.789V130.193H278.269V125.089Z" fill="#EB6158"/>
<path d="M278.269 135.263H257.789V140.367H278.269V135.263Z" fill="#EB6158"/>
<path d="M278.269 114.882H257.789V119.986H278.269V114.882Z" fill="#EB6158"/>
<path d="M281.805 109.878H254.254V114.882H281.805V109.878Z" fill="#414042"/>
<path d="M339.108 252.347H254.687V253.748H339.108V252.347Z" fill="#006DA3"/>
<path d="M256.088 203.045H254.687V252.313H256.088V203.045Z" fill="#006DA3"/>
<path d="M69.7694 349.816H259.79H449.812L469.824 356.088H49.7567L69.7694 349.816Z" fill="#B2D847"/>
<path d="M49.7566 356.088H469.824L486.535 378.37H259.791H33.046L49.7566 356.088Z" fill="#A5C942"/>
<path d="M18.0031 387.143C18.0031 382.44 21.8055 378.637 26.5085 378.637H493.073C497.776 378.637 501.578 382.44 501.578 387.143C501.578 388.277 501.345 389.345 500.944 390.345H18.6368C18.2365 389.345 18.0031 388.277 18.0031 387.143Z" fill="#AB8546"/>
<path d="M500.944 390.345C499.677 393.448 496.641 395.649 493.072 395.649H26.5085C22.9395 395.649 19.9043 393.448 18.6368 390.345H500.944Z" fill="#9C7940"/>
<path d="M149.187 308.554H81.2767V314.525H149.187V308.554Z" fill="#EBEBEB"/>
<path d="M145.117 308.554H143.783V314.525H145.117V308.554Z" fill="#D6D6D6"/>
<path d="M127.039 308.554H125.705V314.525H127.039V308.554Z" fill="#D6D6D6"/>
<path d="M108.961 308.554H107.627V314.525H108.961V308.554Z" fill="#D6D6D6"/>
<path d="M90.8828 308.554H89.5486V314.525H90.8828V308.554Z" fill="#D6D6D6"/>
<path d="M149.187 335.94H81.2767V341.911H149.187V335.94Z" fill="#EBEBEB"/>
<path d="M145.117 335.94H143.783V341.911H145.117V335.94Z" fill="#D6D6D6"/>
<path d="M127.039 335.94H125.705V341.911H127.039V335.94Z" fill="#D6D6D6"/>
<path d="M108.961 335.94H107.627V341.911H108.961V335.94Z" fill="#D6D6D6"/>
<path d="M90.8828 335.94H89.5486V341.911H90.8828V335.94Z" fill="#D6D6D6"/>
<path d="M150.588 307.62V349.883H145.084V300.281L145.351 300.048L150.588 307.62Z" fill="#EBEBEB"/>
<path d="M145.351 300.048L150.588 295.144L156.091 300.281V349.883H150.588V307.62L145.351 300.048Z" fill="white"/>
<path d="M132.509 307.62V349.883H127.039V300.281L127.273 300.048L132.509 307.62Z" fill="#EBEBEB"/>
<path d="M127.273 300.048L132.509 295.144L138.013 300.281V349.883H132.509V307.62L127.273 300.048Z" fill="white"/>
<path d="M114.431 307.62V349.883H108.961V300.281L109.228 300.048L114.431 307.62Z" fill="#EBEBEB"/>
<path d="M109.228 300.048L114.431 295.144L119.935 300.281V349.883H114.431V307.62L109.228 300.048Z" fill="white"/>
<path d="M96.3864 307.62V349.883H90.8828V300.281L91.1497 300.048L96.3864 307.62Z" fill="#EBEBEB"/>
<path d="M91.1497 300.048L96.3863 295.144L101.856 300.281V349.883H96.3863V307.62L91.1497 300.048Z" fill="white"/>
<path d="M78.3082 307.62V349.883H72.8047V300.281L73.0715 300.048L78.3082 307.62Z" fill="#EBEBEB"/>
<path d="M73.0715 300.048L78.3082 295.144L83.7783 300.281V349.883H78.3082V307.62L73.0715 300.048Z" fill="white"/>
<path d="M438.238 308.554H370.328V314.525H438.238V308.554Z" fill="#EBEBEB"/>
<path d="M434.168 308.554H432.834V314.525H434.168V308.554Z" fill="#D6D6D6"/>
<path d="M416.09 308.554H414.756V314.525H416.09V308.554Z" fill="#D6D6D6"/>
<path d="M398.012 308.554H396.678V314.525H398.012V308.554Z" fill="#D6D6D6"/>
<path d="M379.967 308.554H378.633V314.525H379.967V308.554Z" fill="#D6D6D6"/>
<path d="M438.238 335.94H370.328V341.911H438.238V335.94Z" fill="#EBEBEB"/>
<path d="M434.168 335.94H432.834V341.911H434.168V335.94Z" fill="#D6D6D6"/>
<path d="M416.09 335.94H414.756V341.911H416.09V335.94Z" fill="#D6D6D6"/>
<path d="M398.012 335.94H396.678V341.911H398.012V335.94Z" fill="#D6D6D6"/>
<path d="M379.967 335.94H378.633V341.911H379.967V335.94Z" fill="#D6D6D6"/>
<path d="M439.672 307.62V349.883H434.168V300.281L434.435 300.048L439.672 307.62Z" fill="#EBEBEB"/>
<path d="M434.435 300.048L439.672 295.144L445.142 300.281V349.883H439.672V307.62L434.435 300.048Z" fill="white"/>
<path d="M421.594 307.62V349.883H416.09V300.281L416.357 300.048L421.594 307.62Z" fill="#EBEBEB"/>
<path d="M416.357 300.048L421.594 295.144L427.097 300.281V349.883H421.594V307.62L416.357 300.048Z" fill="white"/>
<path d="M403.515 307.62V349.883H398.012V300.281L398.279 300.048L403.515 307.62Z" fill="#EBEBEB"/>
<path d="M398.279 300.048L403.515 295.144L409.019 300.281V349.883H403.515V307.62L398.279 300.048Z" fill="white"/>
<path d="M385.437 307.62V349.883H379.934V300.281L380.201 300.048L385.437 307.62Z" fill="#EBEBEB"/>
<path d="M380.201 300.048L385.437 295.144L390.941 300.281V349.883H385.437V307.62L380.201 300.048Z" fill="white"/>
<path d="M367.359 307.62V349.883H361.889V300.281L362.122 300.048L367.359 307.62Z" fill="#EBEBEB"/>
<path d="M362.122 300.048L367.359 295.144L372.863 300.281V349.883H367.359V307.62L362.122 300.048Z" fill="white"/>
<path d="M229.104 367.029C229.104 365.027 227.47 363.426 225.502 363.426H69.736C67.7348 363.426 66.1337 365.027 66.1337 367.029C66.1337 369.03 67.7681 370.631 69.736 370.631H225.502C227.503 370.665 229.104 369.03 229.104 367.029Z" fill="#B2D847"/>
<path d="M294.946 367.029C294.946 369.03 293.312 370.631 291.344 370.631H257.856C255.855 370.631 254.254 369.03 254.254 367.029C254.254 365.027 255.855 363.426 257.856 363.426H291.344C293.345 363.426 294.946 365.061 294.946 367.029Z" fill="#B2D847"/>
<path d="M79.2755 411.294H37.8157V416.231H79.2755V411.294Z" fill="white"/>
<path d="M136.679 411.294H95.2189V416.231H136.679V411.294Z" fill="white"/>
<path d="M194.082 411.294H152.622V416.231H194.082V411.294Z" fill="white"/>
<path d="M251.485 411.294H210.025V416.231H251.485V411.294Z" fill="white"/>
<path d="M308.888 411.294H267.429V416.231H308.888V411.294Z" fill="white"/>
<path d="M366.325 411.294H324.865V416.231H366.325V411.294Z" fill="white"/>
<path d="M423.728 411.294H382.269V416.231H423.728V411.294Z" fill="white"/>
<path d="M481.132 411.294H439.672V416.231H481.132V411.294Z" fill="white"/>
<path d="M164.296 114.915C164.296 117.717 162.028 119.952 159.26 119.952H122.403C119.601 119.952 117.366 117.684 117.366 114.915C117.366 112.113 119.635 109.878 122.403 109.878H159.226C162.028 109.878 164.296 112.147 164.296 114.915Z" fill="#54C7E8"/>
<path d="M392.375 97.0026C392.375 98.6371 391.041 99.9714 389.406 99.9714H367.793C366.158 99.9714 364.824 98.6371 364.824 97.0026C364.824 95.3681 366.158 94.0338 367.793 94.0338H389.406C391.074 94.0338 392.375 95.3681 392.375 97.0026Z" fill="#54C7E8"/>
<path d="M169.066 56.2401C156.958 56.2401 146.385 62.578 140.381 72.1181C138.813 71.2509 137.046 70.7171 135.144 70.7171C129.141 70.7171 124.271 75.5873 124.271 81.5916C124.271 82.2254 124.371 82.7924 124.438 83.3929H90.5827C86.8136 83.3929 83.7784 86.4284 83.7784 90.1977C83.7784 93.9671 86.8136 97.0026 90.5827 97.0026H196.217C199.986 97.0026 203.021 93.9671 203.021 90.1977C203.021 71.451 187.811 56.2401 169.066 56.2401Z" fill="#54C7E8"/>
<path d="M415.823 74.5199H412.488C412.488 71.6845 410.186 69.4162 407.385 69.4162C407.185 69.4162 407.018 69.4496 406.851 69.4829C403.616 61.3771 395.711 55.6064 386.438 55.6064C378.299 55.6064 371.195 60.0429 367.392 66.6476C366.459 66.314 365.491 66.0805 364.457 66.0805C359.788 66.0805 356.019 69.8499 356.019 74.5199H348.347C345.512 74.5199 343.244 76.8215 343.244 79.6235C343.244 82.4589 345.545 84.7271 348.347 84.7271H415.823C418.659 84.7271 420.927 82.4255 420.927 79.6235C420.927 76.8215 418.625 74.5199 415.823 74.5199Z" fill="#54C7E8"/>
<path d="M382.269 243.874C382.269 246.142 380.434 248.01 378.133 248.01H362.689C360.421 248.01 358.553 246.176 358.553 243.874C358.553 241.606 360.388 239.738 362.689 239.738H378.133C380.434 239.738 382.269 241.572 382.269 243.874Z" fill="#009478"/>
<path d="M98.2542 231.232C98.2542 232.633 97.1202 233.8 95.6859 233.8H86.0798C84.6789 233.8 83.5115 232.666 83.5115 231.232C83.5115 229.831 84.6456 228.663 86.0798 228.663H95.6859C97.0868 228.663 98.2542 229.797 98.2542 231.232Z" fill="#126942"/>
<path d="M156.158 226.762C156.158 228.163 155.024 229.33 153.589 229.33H143.983C142.549 229.33 141.415 228.196 141.415 226.762C141.415 225.361 142.549 224.193 143.983 224.193H153.623C155.024 224.193 156.158 225.361 156.158 226.762Z" fill="#126942"/>
<path d="M120.435 243.874C120.435 245.275 119.301 246.443 117.867 246.443H108.261C106.86 246.443 105.692 245.308 105.692 243.874C105.692 242.473 106.826 241.306 108.261 241.306H117.867C119.301 241.306 120.435 242.44 120.435 243.874Z" fill="#126942"/>
<path d="M139.914 231.232C139.914 233.5 138.08 235.368 135.778 235.368H120.335C118.067 235.368 116.199 233.533 116.199 231.232C116.199 228.963 118.034 227.095 120.335 227.095H135.778C138.046 227.095 139.914 228.963 139.914 231.232Z" fill="#126942"/>
<path d="M442.407 249.611C442.407 251.88 440.572 253.748 438.271 253.748H422.828C420.56 253.748 418.692 251.913 418.692 249.611C418.692 247.343 420.526 245.475 422.828 245.475H438.271C440.539 245.475 442.407 247.343 442.407 249.611Z" fill="#009478"/>
<path d="M408.685 264.289C408.685 265.256 407.885 266.057 406.918 266.057H400.347C399.379 266.057 398.579 265.256 398.579 264.289C398.579 263.321 399.346 262.521 400.347 262.521H406.918C407.885 262.521 408.685 263.321 408.685 264.289Z" fill="#009478"/>
<path d="M409.019 247.81C409.019 250.812 406.584 253.281 403.582 253.281H383.102C380.101 253.281 377.632 250.846 377.632 247.81C377.632 244.808 380.067 242.34 383.102 242.34H403.549C406.551 242.373 409.019 244.808 409.019 247.81Z" fill="#009478"/>
</svg>
