<svg width="35" height="22" viewBox="0 0 35 22" fill="none" xmlns="http://www.w3.org/2000/svg">
<path d="M16.6574 18.4215C15.6909 18.4215 14.9074 19.205 14.9074 20.1715C14.9074 21.138 15.6909 21.9215 16.6574 21.9215H33.25C34.2165 21.9215 35 21.138 35 20.1715C35 19.205 34.2165 18.4215 33.25 18.4215H16.6574ZM9.2037 9.67151C8.2372 9.67151 7.4537 10.455 7.4537 11.4215C7.4537 12.388 8.2372 13.1715 9.2037 13.1715H33.25C34.2165 13.1715 35 12.388 35 11.4215C35 10.455 34.2165 9.67151 33.25 9.67151H9.2037ZM1.75 0.921509C0.783502 0.921509 0 1.70501 0 2.67151C0 3.63801 0.783502 4.42151 1.75 4.42151H33.25C34.2165 4.42151 35 3.63801 35 2.67151C35 1.70501 34.2165 0.921509 33.25 0.921509H1.75Z" fill="black"/>
</svg>
